<?xml version="1.0" encoding="UTF-8"?>
<svg xmlns="http://www.w3.org/2000/svg" xmlns:xlink="http://www.w3.org/1999/xlink" width="810pt" height="809.999993pt" viewBox="0 0 810 809.999993" version="1.2">
<defs>
<clipPath id="clip1">
  <path d="M 8.003906 9 L 802 9 L 802 804 L 8.003906 804 Z M 8.003906 9 "/>
</clipPath>
</defs>
<g id="surface1">
<path style=" stroke:none;fill-rule:nonzero;fill:rgb(100%,100%,100%);fill-opacity:1;" d="M 566.714844 518.125 L 566.007812 518.476562 C 566.261719 518.398438 566.5 518.28125 566.714844 518.125 Z M 566.714844 518.125 "/>
<path style=" stroke:none;fill-rule:nonzero;fill:rgb(100%,100%,100%);fill-opacity:1;" d="M 640.875 478.367188 C 638.921875 475.648438 636.492188 477.761719 634.476562 478.976562 C 628.289062 482.78125 622.519531 487.140625 617.167969 492.058594 C 616.265625 492.988281 615.207031 493.664062 613.984375 494.09375 C 612.761719 494.519531 611.507812 494.652344 610.226562 494.488281 C 602.304688 493.984375 594.464844 494.570312 586.710938 496.246094 C 570.710938 499.15625 555.644531 505.363281 538.910156 510.222656 C 543.707031 504.085938 547.621094 497.429688 550.648438 490.253906 C 553.675781 483.074219 555.714844 475.628906 556.761719 467.910156 C 557.949219 457.707031 560.792969 447.664062 560.921875 437.335938 C 560.875 436.433594 560.945312 435.539062 561.132812 434.652344 C 561.320312 433.769531 561.617188 432.921875 562.023438 432.117188 C 562.429688 431.308594 562.933594 430.566406 563.53125 429.890625 C 564.132812 429.214844 564.808594 428.625 565.5625 428.125 C 571.738281 423.519531 578.871094 420.191406 584.148438 414.371094 C 585.238281 413.1875 586.710938 412.035156 585.398438 410.277344 C 584.085938 408.519531 582.550781 409.351562 581.046875 410.019531 C 574.519531 412.890625 568.535156 416.632812 563.097656 421.246094 C 558.203125 425.40625 552.890625 424.253906 547.101562 424.445312 C 557.820312 413.21875 563.097656 399.433594 567.226562 385.203125 C 568.984375 379.09375 571.542969 374.550781 577.6875 372.152344 C 580.898438 370.636719 583.917969 368.804688 586.742188 366.652344 C 588.148438 365.726562 590.355469 364.828125 589.398438 362.6875 C 588.4375 360.542969 585.8125 360.765625 583.894531 361.597656 C 579.765625 363.390625 575.769531 365.46875 571.703125 367.421875 C 570.136719 368.1875 568.503906 369.625 566.808594 369.148438 C 560.457031 368 554.058594 367.574219 547.613281 367.867188 C 545.117188 367.867188 545.054688 366.84375 545.789062 364.863281 C 549.726562 354.851562 550.238281 344.167969 552.027344 333.710938 C 552.945312 328.941406 553.34375 324.132812 553.222656 319.28125 C 553.105469 314.425781 552.472656 309.640625 551.324219 304.925781 C 549.46875 297.570312 549.179688 297.792969 555.226562 293.507812 C 562.714844 288.199219 571.226562 284.550781 578.167969 278.445312 C 580.023438 276.8125 582.710938 274.476562 581.015625 272.046875 C 579.320312 269.617188 576.441406 271.597656 574.359375 272.75 C 566.925781 276.582031 559.746094 280.84375 552.828125 285.542969 C 547.871094 289.222656 543.039062 288.933594 537.246094 288.550781 C 539.390625 283.335938 541.4375 278.667969 543.230469 273.871094 C 546.652344 264.5625 551.195312 255.574219 551.324219 245.277344 C 551.355469 244.546875 551.480469 243.835938 551.699219 243.136719 C 551.914062 242.441406 552.214844 241.78125 552.601562 241.164062 C 552.988281 240.542969 553.449219 239.984375 553.980469 239.484375 C 554.511719 238.984375 555.097656 238.558594 555.738281 238.207031 C 560.050781 235.644531 564.027344 232.636719 567.671875 229.191406 C 569.050781 227.847656 570.457031 225.992188 569.210938 224.105469 C 567.960938 222.21875 565.816406 223.015625 564.058594 223.785156 C 559.546875 225.984375 555.28125 228.585938 551.261719 231.589844 C 550.25 232.355469 549.125 232.882812 547.886719 233.167969 C 546.644531 233.453125 545.402344 233.46875 544.15625 233.21875 C 530.175781 231.109375 516.164062 228.710938 501.957031 231.011719 C 501.605469 231.011719 501.191406 230.789062 500.582031 230.566406 C 505.027344 221.515625 508.484375 212.101562 510.949219 202.324219 C 513.859375 189.53125 518.851562 177.089844 516.804688 163.5625 C 516.644531 162.503906 517.730469 161.257812 518.339844 160.136719 C 521.730469 153.933594 525.21875 147.792969 528.546875 141.554688 C 529.410156 139.894531 530.527344 137.71875 528.351562 136.375 C 526.175781 135.03125 524.386719 136.695312 523.105469 138.421875 C 519.90625 142.707031 516.707031 146.960938 513.925781 151.4375 C 513.6875 151.890625 513.394531 152.296875 513.042969 152.664062 C 512.691406 153.035156 512.296875 153.347656 511.859375 153.601562 C 511.421875 153.859375 510.957031 154.050781 510.464844 154.179688 C 509.972656 154.304688 509.472656 154.363281 508.964844 154.351562 C 497.570312 154.703125 486.648438 157.167969 476.203125 161.738281 C 457.042969 169.980469 438.910156 180.078125 421.8125 192.027344 C 420.402344 192.933594 418.921875 193.699219 417.367188 194.328125 C 419.664062 189.957031 421.582031 185.425781 423.125 180.734375 C 427.796875 163.015625 430.355469 145.074219 427.414062 126.78125 C 424.691406 109.796875 422.644531 92.6875 416.789062 76.34375 C 411.414062 61.3125 405.753906 46.375 395.257812 34.0625 C 394.367188 33.097656 393.601562 32.042969 392.964844 30.894531 C 392.328125 29.746094 391.835938 28.539062 391.484375 27.273438 C 391.136719 26.007812 390.945312 24.71875 390.90625 23.40625 C 390.867188 22.09375 390.984375 20.792969 391.257812 19.507812 C 392.203125 14.042969 392.09375 8.59375 390.941406 3.167969 C 390.585938 1.503906 390.042969 -0.03125 388.027344 -0.03125 C 386.011719 -0.03125 385.820312 1.664062 385.628906 3.167969 C 385.425781 6.050781 385.074219 8.921875 384.574219 11.769531 C 383.292969 17.335938 384.574219 23.570312 380.863281 28.433594 C 373.984375 37.355469 366.785156 46.023438 359.90625 54.914062 C 347.554688 70.917969 337.328125 88.175781 329.222656 106.695312 C 319.335938 129.339844 313.003906 153.199219 320.007812 178.464844 C 322.023438 185.757812 324.425781 192.953125 326.792969 201.078125 C 324.777344 199.667969 323.59375 198.804688 322.441406 197.878906 C 314.449219 192.300781 306.039062 187.449219 297.207031 183.332031 C 288.375 179.210938 279.253906 175.882812 269.84375 173.347656 C 268.960938 173.171875 268.109375 172.902344 267.285156 172.539062 C 266.464844 172.175781 265.691406 171.726562 264.964844 171.191406 C 264.242188 170.660156 263.582031 170.054688 262.992188 169.375 C 262.402344 168.699219 261.890625 167.964844 261.460938 167.175781 C 255.316406 156.972656 248.855469 146.992188 242.265625 136.984375 C 241.367188 135.511719 240.34375 133.402344 238.265625 134.296875 C 236.1875 135.191406 236.441406 137.496094 237.113281 139.351562 C 237.8125 141.328125 238.621094 143.257812 239.546875 145.136719 C 242.746094 151.628906 246.265625 157.9375 250.101562 164.074219 C 251.082031 165.449219 251.921875 166.90625 252.617188 168.449219 C 253.316406 169.988281 253.855469 171.578125 254.242188 173.226562 C 254.628906 174.871094 254.855469 176.535156 254.917969 178.226562 C 254.980469 179.914062 254.878906 181.59375 254.613281 183.261719 C 252.085938 201.75 251.414062 220.714844 258.773438 239.457031 C 251.496094 237.074219 244.03125 235.804688 236.378906 235.648438 C 234.328125 235.648438 233.753906 234.082031 232.984375 232.738281 C 229.210938 226.34375 225.46875 219.59375 221.722656 213.039062 C 221.019531 211.824219 220.347656 210.03125 218.523438 210.449219 C 216.703125 210.863281 216.828125 213.007812 217.117188 214.542969 C 217.476562 216.449219 218.0625 218.28125 218.878906 220.042969 C 221.722656 226.152344 224.636719 232.226562 227.738281 238.242188 C 228.40625 239.339844 228.828125 240.527344 229.003906 241.796875 C 229.183594 243.070312 229.101562 244.324219 228.761719 245.566406 C 225.050781 258.359375 225.5625 271.4375 226.363281 284.457031 C 226.484375 288.480469 227.070312 292.4375 228.125 296.320312 C 229.179688 300.207031 230.671875 303.917969 232.601562 307.453125 C 234.683594 311.097656 232.984375 311.515625 230.074219 312.25 C 227.929688 312.792969 227.257812 311.578125 226.269531 310.265625 C 223.515625 306.523438 220.699219 302.78125 217.820312 299.136719 C 216.667969 297.695312 214.972656 296.480469 213.246094 297.921875 C 211.519531 299.359375 212.894531 300.832031 213.757812 302.207031 C 216.03125 305.917969 218.078125 309.753906 220.574219 313.304688 C 221.726562 314.855469 222.578125 316.558594 223.128906 318.410156 C 223.679688 320.261719 223.894531 322.152344 223.773438 324.082031 C 223.101562 335.820312 226.171875 347.046875 228.859375 358.304688 C 231.1875 368.054688 234.972656 377.203125 240.21875 385.746094 C 232.984375 387.410156 232.984375 387.410156 227.929688 383.730469 C 225.882812 382.1875 223.75 380.769531 221.53125 379.476562 C 219.804688 378.484375 217.628906 376.664062 215.964844 378.933594 C 214.300781 381.203125 216.316406 383.21875 218.207031 384.402344 C 220.308594 385.742188 222.265625 387.265625 224.078125 388.976562 C 225.886719 390.6875 227.523438 392.550781 228.980469 394.570312 C 230.4375 396.59375 231.691406 398.734375 232.742188 400.992188 C 233.792969 403.25 234.621094 405.589844 235.226562 408.007812 C 235.71875 409.546875 236.304688 411.050781 236.984375 412.515625 C 245.046875 430.203125 249.78125 450 268.371094 461.867188 C 260.277344 463.785156 253.269531 465.992188 247.320312 458.890625 C 245.066406 456.808594 242.582031 455.046875 239.863281 453.613281 C 238.105469 452.460938 236.058594 450.863281 234.328125 453.070312 C 232.601562 455.277344 234.328125 457.324219 236.121094 458.828125 C 239.898438 462.027344 243.769531 465.222656 247.574219 468.421875 C 248.957031 469.335938 249.898438 470.582031 250.390625 472.164062 C 251.804688 477.914062 253.632812 483.527344 255.878906 489.003906 C 258.125 494.480469 260.765625 499.761719 263.796875 504.847656 C 266.824219 509.933594 270.214844 514.769531 273.960938 519.351562 C 277.710938 523.933594 281.777344 528.214844 286.160156 532.195312 C 288.6875 534.5625 291.472656 536.671875 294.703125 539.328125 C 287.507812 539.472656 280.535156 540.785156 273.777344 543.261719 C 267.027344 545.820312 260.820312 546.171875 254.582031 541.503906 C 252.558594 540.140625 250.363281 539.167969 247.992188 538.59375 C 245.71875 537.921875 242.648438 535.394531 241.207031 538.816406 C 239.769531 542.238281 243.640625 542.847656 245.6875 543.902344 C 254.007812 548.125 261.683594 552.953125 263.605469 563.089844 C 263.933594 564.183594 264.421875 565.195312 265.074219 566.128906 C 272.273438 577.964844 278.257812 590.4375 284.816406 602.589844 C 299.789062 630.0625 321.640625 648.359375 353.378906 652.644531 C 357.859375 653.144531 362.351562 653.339844 366.855469 653.230469 C 371.363281 653.117188 375.839844 652.703125 380.289062 651.984375 C 384.742188 651.265625 389.121094 650.25 393.433594 648.9375 C 397.746094 647.621094 401.945312 646.023438 406.039062 644.136719 C 414.902344 640.394531 423.828125 636.75 432.722656 633.101562 C 436.273438 631.632812 440.273438 627.890625 443.027344 628.71875 C 445.777344 629.550781 446.417969 635.375 448.175781 638.890625 C 456.65625 656.035156 465.871094 672.761719 474.957031 689.585938 C 483.050781 704.550781 489.480469 720.382812 498.152344 735.097656 C 508.390625 752.429688 521.859375 767.589844 531.488281 785.308594 C 535.828125 793.046875 540.894531 800.273438 546.683594 806.992188 C 547.773438 808.335938 548.476562 810.992188 551.070312 809.585938 C 553.660156 808.175781 553.46875 805.875 552.539062 803.1875 C 550.152344 797.375 547.253906 791.832031 543.839844 786.554688 C 517.1875 740.726562 490.726562 694.765625 466.414062 647.65625 C 465.902344 646.695312 464.460938 645.734375 465.964844 643.65625 C 493.832031 649.222656 520.355469 642.539062 545.757812 631.023438 C 576.246094 617.207031 596.277344 593.089844 609.167969 562.707031 C 611.535156 557.109375 612.59375 550.9375 615.054688 545.40625 C 621.136719 531.910156 621.808594 517.738281 620.941406 503.347656 C 620.835938 502.6875 620.820312 502.027344 620.902344 501.363281 C 620.984375 500.699219 621.160156 500.0625 621.425781 499.449219 C 621.695312 498.835938 622.042969 498.273438 622.472656 497.761719 C 622.902344 497.25 623.394531 496.808594 623.949219 496.4375 C 629.003906 492.730469 633.996094 488.890625 638.859375 484.957031 C 640.972656 483.390625 642.699219 480.925781 640.875 478.367188 Z M 560.890625 376.4375 C 554.074219 379.636719 547.261719 382.578125 540.511719 385.777344 C 535.871094 387.984375 531.328125 390.414062 526.753906 392.78125 C 525.859375 393.261719 524.195312 393.550781 524.929688 395.054688 C 525.664062 396.554688 526.976562 395.4375 527.9375 395.054688 C 538.078125 391.855469 547.515625 386.867188 557.242188 382.675781 L 560.953125 381.042969 C 561.011719 381.980469 560.925781 382.90625 560.699219 383.816406 C 560.472656 384.726562 560.113281 385.582031 559.625 386.382812 C 559.136719 387.179688 558.539062 387.890625 557.832031 388.507812 C 557.125 389.125 556.34375 389.621094 555.484375 390 C 549.246094 393.199219 542.6875 394.988281 536.289062 397.707031 C 532.320312 399.402344 528.449219 401.417969 524.609375 403.433594 C 523.617188 403.914062 521.699219 404.167969 522.59375 405.925781 C 523.488281 407.6875 524.609375 406.34375 525.792969 405.925781 C 535.390625 402.503906 545.183594 398.988281 554.589844 394.734375 L 556.988281 393.613281 C 556.976562 394.191406 556.890625 394.757812 556.730469 395.3125 C 556.574219 395.867188 556.347656 396.390625 556.054688 396.886719 C 555.757812 397.382812 555.40625 397.832031 554.996094 398.238281 C 554.585938 398.640625 554.128906 398.988281 553.628906 399.273438 C 549.613281 401.667969 545.433594 403.722656 541.085938 405.449219 C 538.453125 406.332031 535.996094 407.570312 533.714844 409.160156 C 531.4375 410.746094 529.425781 412.625 527.679688 414.785156 C 535.820312 412.585938 543.742188 409.78125 551.453125 406.375 C 549.597656 411.203125 545.628906 413.828125 543.773438 417.664062 C 540.320312 424.703125 534.527344 426.203125 527.394531 426.8125 C 496.136719 429.371094 468.363281 441.621094 442.800781 459.082031 C 437.632812 463.210938 432.792969 467.6875 428.277344 472.515625 C 426.671875 474.085938 424.96875 475.539062 423.15625 476.867188 C 416.277344 481.695312 408.121094 478.722656 406.617188 470.46875 C 404.28125 457.675781 402.617188 445.074219 400.632812 432.378906 C 400.511719 431.496094 400.550781 430.621094 400.753906 429.757812 C 400.960938 428.890625 401.3125 428.089844 401.816406 427.355469 C 405.363281 421.722656 409.714844 416.796875 414.871094 412.578125 C 434.066406 396.589844 456.269531 386.992188 480.136719 380.597656 C 490.21875 377.734375 500.472656 375.796875 510.898438 374.78125 C 521.328125 373.765625 531.765625 373.6875 542.207031 374.550781 C 531.328125 377.527344 521.027344 378.933594 511.910156 384.339844 C 528.417969 383.570312 544.15625 376.984375 560.953125 376.4375 Z M 540.382812 302.109375 C 541.949219 301.34375 544.125 298.242188 545.375 300.640625 C 545.566406 300.972656 545.726562 301.320312 545.855469 301.683594 C 545.988281 302.046875 546.082031 302.421875 546.144531 302.800781 C 546.207031 303.179688 546.234375 303.5625 546.230469 303.949219 C 546.222656 304.335938 546.179688 304.71875 546.105469 305.09375 C 546.027344 305.472656 545.917969 305.839844 545.777344 306.199219 C 545.632812 306.558594 545.460938 306.902344 545.257812 307.226562 C 545.050781 307.554688 544.820312 307.859375 544.558594 308.144531 C 544.300781 308.429688 544.015625 308.691406 543.710938 308.921875 C 540.832031 310.96875 538.078125 313.210938 535.070312 315.03125 C 528.671875 318.964844 522.019531 322.675781 515.492188 326.515625 C 513.890625 327.441406 511.429688 328.433594 512.707031 330.734375 C 513.988281 333.039062 515.90625 331.214844 517.410156 330.414062 C 526.925781 325.613281 536 320.089844 544.636719 313.847656 C 545.5 318.933594 545.246094 319.476562 542.335938 322.484375 C 537.382812 327.148438 531.871094 331.007812 525.792969 334.0625 C 523.394531 335.40625 520.417969 336.363281 519.9375 340.457031 C 524.242188 339.230469 528.367188 337.558594 532.3125 335.4375 C 536.253906 333.316406 539.925781 330.800781 543.324219 327.890625 C 545.789062 336.554688 540.125 340.683594 534.113281 344.234375 C 531.105469 346.085938 528.066406 347.910156 525.027344 349.703125 C 524.226562 350.179688 522.976562 350.5 523.296875 351.652344 C 523.617188 352.804688 525.027344 352.546875 526.082031 352.292969 C 532 350.917969 536.734375 347.238281 542.589844 343.210938 C 540.925781 350.917969 540.796875 357.730469 538.910156 364.316406 C 538.863281 364.609375 538.785156 364.898438 538.675781 365.175781 C 538.566406 365.453125 538.433594 365.714844 538.273438 365.964844 C 538.113281 366.214844 537.925781 366.445312 537.71875 366.660156 C 537.507812 366.871094 537.28125 367.0625 537.035156 367.226562 C 536.789062 367.394531 536.527344 367.53125 536.25 367.644531 C 535.976562 367.757812 535.691406 367.84375 535.398438 367.898438 C 535.105469 367.953125 534.8125 367.976562 534.515625 367.972656 C 534.214844 367.96875 533.921875 367.933594 533.632812 367.867188 C 503.78125 365.660156 476.042969 374.074219 448.6875 384.59375 C 437.382812 389.414062 426.917969 395.652344 417.300781 403.304688 C 412.148438 407.777344 406.335938 411.101562 399.867188 413.285156 C 395.644531 414.371094 393.882812 412.707031 393.789062 409.03125 C 393.46875 399.050781 390.90625 389.328125 390.203125 379.414062 C 389.789062 373.5625 392.761719 368.890625 395.738281 364.316406 C 401.441406 356.503906 407.839844 349.308594 414.933594 342.730469 C 437.011719 319.863281 465.101562 309.210938 495.238281 302.527344 L 514.949219 298.210938 C 505.765625 304.605469 494.855469 306.875 485.578125 313.304688 C 491.976562 313.753906 494.855469 313.015625 503.140625 309.5625 C 512.035156 305.886719 520.484375 301.085938 530.015625 299.074219 C 532.042969 298.617188 534.078125 298.550781 536.128906 298.878906 L 503.75 316.40625 C 504.765625 316.746094 505.804688 316.96875 506.871094 317.074219 C 507.9375 317.175781 509 317.160156 510.0625 317.019531 C 511.121094 316.882812 512.15625 316.625 513.160156 316.253906 C 514.160156 315.878906 515.109375 315.398438 516.003906 314.808594 C 524.226562 310.617188 532.257812 306.203125 540.445312 302.109375 Z M 519.042969 237.378906 L 505.796875 242.175781 C 504.773438 242.527344 503.367188 242.847656 503.847656 244.316406 C 504.324219 245.789062 505.667969 245.277344 506.757812 244.988281 C 512.996094 243.390625 519.234375 241.792969 525.472656 240.191406 C 530.136719 238.832031 534.894531 238.296875 539.742188 238.59375 C 531.296875 242.429688 522.179688 244.765625 513.988281 249.5 C 515.425781 251.578125 516.769531 250.617188 517.828125 250.265625 C 526.210938 247.453125 534.558594 244.507812 542.941406 241.664062 C 543.933594 241.34375 545.183594 239.488281 546.140625 241.664062 C 546.8125 243.230469 545.5 243.902344 544.285156 244.542969 C 538.144531 247.738281 531.679688 250.265625 525.859375 254.136719 C 523.746094 255.183594 521.976562 256.644531 520.546875 258.519531 C 525.503906 258.742188 528.863281 255.640625 532.671875 253.914062 C 536.480469 252.183594 540.445312 250.203125 544.734375 248.15625 C 544.746094 248.902344 544.65625 249.632812 544.457031 250.351562 C 544.261719 251.070312 543.964844 251.75 543.574219 252.382812 C 543.183594 253.019531 542.710938 253.585938 542.15625 254.085938 C 541.601562 254.585938 540.992188 254.996094 540.320312 255.320312 C 533.761719 258.917969 527.84375 263.363281 522.5625 268.65625 C 530.175781 267.953125 534.75 263.1875 540.703125 259.957031 C 538.878906 265.96875 537.824219 271.40625 531.585938 274.222656 C 526.21875 276.628906 521.550781 280 517.570312 284.328125 C 523.257812 282.777344 528.589844 280.417969 533.566406 277.261719 C 532.628906 280.964844 531.242188 284.492188 529.410156 287.847656 C 528.703125 289.507812 527.042969 289.253906 525.632812 289.382812 C 500.261719 291.8125 476.140625 299.328125 452.65625 308.570312 C 445.445312 311.46875 438.605469 315.070312 432.136719 319.378906 C 425.667969 323.691406 419.710938 328.617188 414.261719 334.15625 C 406.609375 341.265625 397.929688 346.746094 388.21875 350.597656 C 386.300781 342.304688 385.234375 333.902344 385.019531 325.394531 C 384.667969 319.828125 387.613281 315.160156 390.234375 310.585938 C 393.054688 305.785156 396.320312 301.3125 400.035156 297.164062 C 403.753906 293.019531 407.84375 289.285156 412.3125 285.960938 C 433.714844 269.328125 455.726562 253.6875 481.226562 243.804688 C 493.097656 239.390625 505.125 235.296875 519.105469 237.378906 Z M 446.417969 184.667969 C 457.292969 178.785156 468.300781 173.125 479.625 168.101562 C 482.003906 166.597656 484.585938 165.636719 487.367188 165.222656 C 485.765625 166.976562 483.867188 168.308594 481.675781 169.222656 C 481.128906 169.796875 480.554688 170.375 480.042969 170.980469 C 479.53125 171.589844 477.929688 172.453125 479.148438 173.667969 C 480.363281 174.882812 480.90625 173.667969 481.738281 173.21875 C 486.539062 170.277344 491.335938 167.398438 496.136719 164.390625 C 497.253906 163.6875 498.214844 162.855469 499.847656 163.6875 C 496.648438 167.484375 493.449219 171.269531 490.25 175.042969 C 489.578125 175.84375 488.199219 176.707031 489.289062 177.890625 C 490.375 179.074219 491.304688 177.890625 492.136719 177.183594 C 497.03125 173.636719 500.421875 168.644531 504.742188 164.390625 C 506.246094 162.953125 507.558594 160.648438 510.851562 162.472656 C 505.667969 168.519531 500.582031 174.371094 495.558594 180.289062 C 494.792969 181.152344 493.128906 181.984375 494.664062 183.484375 C 496.199219 184.988281 496.742188 183.484375 497.574219 182.71875 C 502.21875 179.171875 506.070312 174.90625 509.125 169.925781 C 509.734375 168.871094 509.734375 167.335938 511.84375 167.269531 C 512.085938 167.976562 512.238281 168.699219 512.308594 169.441406 C 512.375 170.183594 512.355469 170.921875 512.246094 171.660156 C 512.136719 172.394531 511.945312 173.109375 511.664062 173.800781 C 511.386719 174.492188 511.03125 175.140625 510.597656 175.746094 C 506.4375 181.054688 502.277344 186.363281 498.472656 191.929688 C 496.933594 194.167969 493.894531 197.972656 496.230469 199.445312 C 499.207031 201.269531 500.167969 196.246094 501.957031 194.457031 C 503.75 192.664062 505.894531 189.402344 508.164062 186.398438 C 507.171875 194.488281 502.40625 199.636719 497.445312 204.660156 C 495.074219 206.875 493.050781 209.367188 491.367188 212.144531 C 490.886719 213.007812 490.472656 213.996094 491.367188 214.765625 C 492.265625 215.53125 493.191406 214.765625 493.863281 214.191406 C 496.582031 211.695312 499.269531 209.167969 502.628906 206.035156 C 499.976562 215.078125 496.46875 223.777344 492.105469 232.132812 C 491.242188 233.859375 489.609375 234.019531 488.105469 234.5 C 453.328125 245.980469 424.117188 266.480469 397.53125 290.949219 C 394.210938 294.003906 390.585938 296.636719 386.652344 298.847656 C 385.054688 299.746094 383.675781 300.351562 383.453125 297.601562 C 382.238281 278.1875 379.132812 259.222656 389.851562 240.382812 C 393.09375 234.492188 396.742188 228.863281 400.804688 223.5 C 404.863281 218.140625 409.292969 213.101562 414.085938 208.382812 C 418.882812 203.664062 423.992188 199.320312 429.421875 195.347656 C 434.847656 191.375 440.535156 187.816406 446.480469 184.667969 Z M 326.023438 169.507812 C 322.472656 155.53125 327.078125 142.421875 329.480469 129.082031 C 331.46875 118.152344 335.433594 107.992188 341.382812 98.601562 C 347.78125 88.367188 352.609375 77.269531 359.617188 67.386719 L 366.015625 58.5625 C 365.730469 70.425781 360 80.628906 361.3125 92.335938 C 362.519531 91.683594 363.511719 90.796875 364.292969 89.667969 C 365.070312 88.539062 365.546875 87.296875 365.730469 85.9375 C 368.976562 75.933594 370.820312 65.679688 371.261719 55.171875 C 371.261719 48.933594 371.550781 48.933594 377.183594 44.519531 C 376.253906 53.316406 375.421875 61.664062 374.527344 70.105469 C 374.027344 73.636719 374.027344 77.164062 374.527344 80.691406 C 374.75 81.972656 374.71875 84.050781 376.636719 83.890625 C 378.558594 83.730469 378.109375 82.003906 378.238281 80.691406 C 379.625 68.539062 380.980469 56.386719 382.300781 44.234375 C 382.621094 41.035156 382.011719 36.714844 386.460938 36.84375 C 390.90625 36.972656 390.492188 41.578125 390.203125 44.777344 C 389.308594 54.371094 388.285156 63.679688 387.261719 73.113281 C 386.933594 76.035156 387.15625 78.914062 387.933594 81.75 C 388.167969 82.535156 388.65625 83.101562 389.402344 83.445312 C 390.554688 83.730469 391.164062 82.644531 391.324219 81.714844 C 391.898438 78.519531 392.445312 75.320312 392.761719 72.121094 C 393.941406 63.214844 394.636719 54.269531 394.84375 45.289062 C 397.625 49.191406 399.800781 52.292969 399.257812 56.609375 C 397.808594 67.460938 396.410156 78.316406 395.066406 89.167969 C 394.699219 91.800781 394.699219 94.433594 395.066406 97.066406 C 401.976562 86.320312 400.570312 73.71875 403.320312 61.375 C 410.617188 75.191406 406.519531 89.296875 406.9375 104.039062 C 411.542969 99.660156 411.480469 94.445312 413.335938 89.808594 C 414.871094 98.058594 416.183594 106.34375 417.972656 114.5625 C 419.160156 119.878906 420.007812 125.246094 420.519531 130.667969 C 421.027344 136.089844 421.191406 141.523438 421.015625 146.96875 C 420.835938 152.410156 420.316406 157.820312 419.453125 163.199219 C 418.59375 168.578125 417.394531 173.878906 415.863281 179.105469 C 415.046875 182.0625 413.808594 184.835938 412.152344 187.421875 C 404.34375 199.03125 396.539062 210.609375 386.042969 220.105469 C 385.214844 220.796875 384.335938 221.421875 383.414062 221.980469 C 382.492188 222.539062 381.53125 223.027344 380.535156 223.445312 C 379.539062 223.863281 378.519531 224.203125 377.472656 224.46875 C 376.425781 224.734375 375.363281 224.921875 374.289062 225.027344 C 373.214844 225.136719 372.140625 225.164062 371.0625 225.113281 C 369.984375 225.058594 368.914062 224.929688 367.855469 224.71875 C 366.796875 224.507812 365.757812 224.21875 364.742188 223.851562 C 363.726562 223.488281 362.742188 223.046875 361.792969 222.539062 C 351.621094 217.386719 344.707031 209.105469 337.765625 200.628906 C 330.3125 191.515625 328.777344 180.257812 326.023438 169.507812 Z M 260.46875 197.078125 C 262.722656 200.78125 264.628906 204.648438 266.195312 208.6875 C 267.347656 210.992188 268.46875 213.328125 269.714844 215.566406 C 270.292969 216.652344 270.835938 218.285156 272.402344 217.738281 C 273.96875 217.195312 273.203125 215.597656 272.945312 214.542969 C 271.25 205.90625 266.773438 198.390625 263.15625 190.523438 C 262.070312 188.15625 260.148438 185.886719 261.941406 182.269531 C 268.980469 191.867188 271.539062 203.570312 279.921875 211.597656 C 277.746094 200.40625 271.058594 191.386719 266.324219 181.246094 C 266.5625 181.113281 266.8125 181.007812 267.074219 180.925781 C 267.335938 180.84375 267.601562 180.789062 267.875 180.761719 C 268.144531 180.730469 268.417969 180.730469 268.691406 180.757812 C 268.964844 180.785156 269.230469 180.839844 269.492188 180.917969 C 269.753906 181 270.003906 181.105469 270.242188 181.238281 C 270.484375 181.367188 270.707031 181.523438 270.917969 181.699219 C 271.125 181.875 271.316406 182.070312 271.484375 182.285156 C 271.652344 182.5 271.800781 182.730469 271.921875 182.972656 C 276.082031 188.921875 280.367188 194.746094 284.71875 200.597656 C 286.222656 202.675781 287.917969 204.722656 289.488281 206.640625 C 290.222656 207.503906 290.992188 209.359375 292.429688 208.433594 C 293.871094 207.503906 292.429688 206.097656 291.855469 205.234375 C 288.457031 199.207031 284.660156 193.4375 280.464844 187.933594 L 277.746094 184.382812 C 283.726562 184.382812 289.710938 187.578125 295.757812 193.976562 C 300.460938 198.933594 303.46875 205.332031 309.515625 210.800781 C 309.132812 204.050781 304.8125 200.308594 302.125 194.808594 C 305.859375 195.996094 309.304688 197.757812 312.457031 200.085938 C 327.59375 210.902344 341.230469 223.355469 353.378906 237.441406 C 362.65625 247.898438 367.136719 261.398438 369.375 275.148438 C 371.167969 286.246094 371.742188 297.539062 372.800781 308.730469 C 372.800781 310.617188 373.503906 312.855469 371.457031 313.976562 C 370.550781 314.359375 369.609375 314.5 368.628906 314.398438 C 367.652344 314.292969 366.757812 313.960938 365.953125 313.402344 C 361.148438 311.109375 357.054688 307.910156 353.667969 303.804688 C 339.367188 286.023438 320.746094 273.199219 302.253906 260.308594 C 293.261719 253.980469 283.578125 248.988281 273.203125 245.339844 C 271.851562 244.839844 270.640625 244.109375 269.574219 243.140625 C 268.503906 242.171875 267.65625 241.039062 267.027344 239.746094 C 259.222656 226.40625 260.566406 212.144531 260.46875 197.078125 Z M 234.042969 259.382812 C 236.824219 264.082031 239.066406 268.015625 241.464844 271.855469 C 242.199219 273.007812 243.222656 275.054688 244.664062 274.316406 C 246.648438 273.390625 245.273438 271.3125 244.664062 270.128906 C 242.136719 265.265625 239.351562 260.53125 236.664062 255.800781 C 235.578125 253.878906 233.945312 252.058594 235.769531 248.921875 C 238.96875 253.5625 242.167969 257.972656 245.175781 262.324219 C 245.945312 263.410156 246.488281 265.523438 248.375 264.433594 C 249.65625 263.636719 248.597656 262.066406 248.375 260.886719 C 246.457031 255.257812 241.976562 251.289062 238.777344 246.460938 C 238.042969 245.308594 235.578125 244.15625 237.433594 242.71875 C 237.65625 242.570312 237.886719 242.449219 238.136719 242.347656 C 238.382812 242.25 238.632812 242.171875 238.894531 242.125 C 239.15625 242.074219 239.421875 242.054688 239.6875 242.058594 C 239.953125 242.0625 240.214844 242.089844 240.472656 242.148438 C 240.734375 242.203125 240.984375 242.285156 241.226562 242.394531 C 241.472656 242.5 241.703125 242.632812 241.917969 242.785156 C 242.136719 242.9375 242.335938 243.113281 242.515625 243.304688 C 242.699219 243.5 242.859375 243.707031 243 243.933594 C 246.199219 247.933594 249.398438 252.027344 252.597656 255.992188 C 254.933594 258.871094 257.269531 261.75 259.859375 264.371094 C 260.820312 265.363281 262.261719 267.378906 263.828125 265.714844 C 265.394531 264.050781 263.15625 262.835938 262.292969 261.75 C 257.589844 255.832031 252.695312 250.042969 247.832031 244.0625 C 262.195312 244.542969 266.578125 258.230469 276.625 265.296875 C 275.632812 258.550781 270.226562 255.703125 267.410156 250.425781 C 274.902344 252.3125 281.855469 255.402344 288.273438 259.703125 C 308.425781 272.496094 328.039062 286.085938 344.164062 303.871094 C 353.6875 314.773438 362.304688 326.351562 370.015625 338.601562 C 374.910156 346.054688 375.328125 354.820312 375.039062 363.292969 L 360.992188 350.214844 C 355.582031 344.824219 349.398438 340.558594 342.4375 337.421875 C 329.128906 331.855469 316.84375 323.859375 302.253906 321.429688 C 289.457031 319.222656 276.65625 316.121094 263.859375 313.59375 C 257.800781 312.753906 251.710938 312.378906 245.59375 312.472656 C 244.914062 312.46875 244.257812 312.355469 243.617188 312.132812 C 242.976562 311.910156 242.394531 311.585938 241.863281 311.167969 C 241.332031 310.746094 240.882812 310.25 240.519531 309.679688 C 240.15625 309.109375 239.894531 308.496094 239.738281 307.835938 C 235.96875 297.417969 233.953125 286.671875 233.691406 275.597656 C 236.699219 277.996094 237.53125 281.195312 239.480469 283.5625 C 240.183594 284.390625 240.984375 285.640625 242.234375 284.9375 C 243.480469 284.234375 242.777344 283.015625 242.234375 281.960938 C 240.992188 278.371094 239.09375 275.175781 236.539062 272.367188 C 233.179688 268.847656 233.339844 264.785156 234.042969 259.382812 Z M 234.617188 350.5 C 239.769531 355.042969 241.816406 360.832031 247.414062 363.292969 C 246.238281 360.242188 244.730469 357.367188 242.886719 354.667969 C 241.042969 351.964844 238.917969 349.511719 236.503906 347.304688 C 235.722656 346.628906 235.03125 345.878906 234.429688 345.042969 C 233.824219 344.207031 233.328125 343.3125 232.933594 342.359375 C 232.542969 341.40625 232.265625 340.417969 232.109375 339.402344 C 231.949219 338.382812 231.910156 337.359375 231.996094 336.332031 C 237.273438 339.753906 240.730469 345.382812 247 347.015625 C 243.925781 341.757812 239.925781 337.332031 235 333.742188 C 234.015625 333.03125 233.125 332.214844 232.332031 331.292969 C 231.535156 330.375 230.863281 329.371094 230.304688 328.289062 C 229.75 327.210938 229.328125 326.078125 229.039062 324.894531 C 228.753906 323.714844 228.605469 322.515625 228.601562 321.300781 C 236.539062 325.90625 242.007812 333.421875 249.6875 338.21875 C 247.449219 329.425781 240.3125 324.945312 233.339844 319.382812 C 237.976562 318.871094 241.496094 318.550781 245.144531 321.75 C 252.246094 328.144531 259.957031 333.613281 267.378906 339.5 C 267.53125 339.703125 267.722656 339.863281 267.945312 339.988281 C 268.167969 340.109375 268.402344 340.179688 268.65625 340.203125 C 268.910156 340.222656 269.15625 340.191406 269.398438 340.109375 C 269.636719 340.027344 269.851562 339.898438 270.035156 339.722656 C 265.972656 331.214844 257.429688 327.34375 250.453125 321.140625 C 252.332031 320.765625 254.214844 320.742188 256.101562 321.066406 C 257.988281 321.394531 259.753906 322.046875 261.398438 323.027344 C 266.226562 326.226562 270.996094 329.742188 275.570312 333.039062 C 276.304688 333.550781 277.042969 334.703125 277.96875 333.582031 C 278.898438 332.460938 277.683594 331.886719 277.074219 331.246094 C 273.878906 328.058594 270.339844 325.320312 266.453125 323.027344 C 272.851562 322.644531 277.875 325.617188 283.183594 326.003906 C 303.210938 327.472656 321.160156 335.597656 338.726562 344.230469 C 364.320312 357.027344 379.804688 377.496094 382.011719 406.792969 C 382.195312 410.5 381.992188 414.191406 381.40625 417.855469 C 380.988281 420.769531 379.933594 421.664062 377.628906 419.199219 C 370.144531 411.140625 360.417969 406.40625 351.203125 400.9375 C 344.808594 397.003906 338.03125 393.914062 330.867188 391.667969 C 323.703125 389.417969 316.371094 388.085938 308.875 387.664062 C 302.78125 387.132812 296.757812 386.171875 290.800781 384.785156 C 280.046875 382.917969 269.320312 383.035156 258.613281 385.136719 C 253.496094 385.96875 250.101562 385.136719 247.253906 380.148438 C 242.070312 370.679688 237.859375 360.796875 234.617188 350.5 Z M 250.613281 425.179688 C 255.957031 426.683594 259.636719 431.097656 265.269531 431.769531 C 265.269531 429.050781 263.21875 427.996094 261.714844 426.941406 C 258.699219 424.742188 255.5 422.855469 252.117188 421.28125 C 251.050781 420.828125 250.058594 420.246094 249.144531 419.53125 C 248.230469 418.816406 247.425781 417.996094 246.730469 417.070312 C 246.03125 416.144531 245.46875 415.140625 245.035156 414.066406 C 244.605469 412.988281 244.320312 411.875 244.183594 410.726562 C 250.261719 413.636719 254.742188 418.6875 262.035156 421.152344 C 256.820312 410.628906 243.480469 410.375 239.160156 398.761719 L 266.164062 413.570312 C 267.21875 414.148438 268.59375 415.523438 269.554688 414.210938 C 270.515625 412.898438 268.691406 411.8125 267.761719 411.011719 C 261.347656 406.109375 254.535156 401.847656 247.320312 398.21875 L 239.351562 393.773438 C 244.953125 392.078125 249.207031 391.3125 253.589844 393.996094 C 259.988281 397.964844 266.578125 401.738281 273.136719 405.511719 C 274.285156 406.324219 275.535156 406.925781 276.882812 407.328125 C 278.230469 407.726562 279.605469 407.898438 281.007812 407.847656 C 274.164062 400.617188 265.394531 397.355469 257.910156 391.855469 C 268.5 388.65625 275.792969 396.042969 284.71875 399.820312 C 283.503906 394.445312 278.320312 393.742188 274.097656 390.222656 C 277.609375 390.183594 281.105469 390.375 284.59375 390.800781 C 297.070312 393.359375 309.707031 394.734375 322.3125 396.269531 C 325.558594 396.539062 328.671875 397.328125 331.65625 398.636719 C 347.652344 406.566406 364 413.828125 376.636719 427.035156 C 377.792969 428.382812 379.074219 429.597656 380.476562 430.683594 C 381.355469 431.308594 382.148438 432.03125 382.855469 432.84375 C 383.5625 433.660156 384.167969 434.542969 384.667969 435.5 C 385.167969 436.453125 385.550781 437.453125 385.816406 438.5 C 386.078125 439.542969 386.21875 440.605469 386.238281 441.683594 C 387.101562 450.160156 388.765625 458.539062 390.011719 466.984375 C 390.257812 467.832031 390.378906 468.703125 390.375 469.585938 C 390.371094 470.472656 390.246094 471.339844 389.996094 472.1875 C 389.746094 473.039062 389.386719 473.835938 388.910156 474.582031 C 388.433594 475.328125 387.863281 475.992188 387.195312 476.578125 C 384.316406 478.59375 381.085938 476.800781 378.140625 475.296875 C 363.746094 468.039062 347.8125 465.894531 332.488281 461.738281 C 325.519531 459.988281 318.441406 458.976562 311.261719 458.707031 C 304.082031 458.441406 296.953125 458.917969 289.871094 460.136719 C 288.234375 460.519531 286.574219 460.710938 284.894531 460.710938 C 283.214844 460.710938 281.554688 460.519531 279.917969 460.136719 C 278.28125 459.753906 276.707031 459.1875 275.203125 458.445312 C 273.695312 457.699219 272.292969 456.792969 270.996094 455.726562 C 268.535156 453.796875 266.246094 451.6875 264.117188 449.398438 C 261.992188 447.109375 260.054688 444.667969 258.3125 442.074219 C 256.570312 439.480469 255.039062 436.769531 253.71875 433.9375 C 252.402344 431.101562 251.3125 428.183594 250.453125 425.179688 Z M 292.75 528.484375 C 288.25 524.707031 284.140625 520.542969 280.429688 515.988281 C 276.714844 511.429688 273.464844 506.566406 270.675781 501.398438 C 276.304688 502.867188 279.183594 508.785156 285.457031 508.6875 C 279.503906 497.878906 265.972656 495.0625 260.757812 483.101562 C 264.203125 484.277344 267.253906 486.109375 269.90625 488.601562 C 273.960938 491.777344 278.226562 494.636719 282.703125 497.175781 C 283.695312 497.65625 284.914062 498.519531 285.902344 497.175781 C 286.894531 495.832031 285.390625 495.320312 284.558594 494.585938 C 277.375 488.121094 269.683594 482.320312 261.492188 477.183594 C 259.796875 476.128906 257.878906 474.980469 259.09375 472.707031 C 260.308594 470.4375 262.546875 470.4375 264.882812 471.652344 C 272.402344 475.648438 280.015625 479.488281 287.601562 483.359375 C 289.96875 484.574219 293.804688 487.261719 294.734375 485.339844 C 296.015625 482.6875 291.757812 481.34375 289.519531 479.902344 C 283.238281 476.101562 276.734375 472.730469 270.003906 469.796875 C 277.265625 466.40625 282.800781 468.582031 288.398438 472.773438 C 290.5 474.699219 292.835938 476.285156 295.398438 477.53125 C 297.964844 478.777344 300.65625 479.632812 303.46875 480.097656 C 298.542969 474.53125 292.75 471.523438 287.28125 466.664062 C 298.957031 466.917969 309.835938 464.585938 320.585938 466.886719 C 339.398438 470.949219 358.53125 473.988281 376.222656 482.207031 C 382.824219 485.613281 388.953125 489.71875 394.617188 494.519531 C 395.476562 495.265625 396.183594 496.136719 396.734375 497.128906 C 397.285156 498.125 397.644531 499.183594 397.816406 500.308594 C 401.554688 516.417969 406.203125 532.261719 411.769531 547.835938 C 412.164062 548.878906 412.328125 549.960938 412.261719 551.074219 C 412.195312 552.191406 411.902344 553.242188 411.382812 554.230469 C 409.816406 557.589844 407.894531 558.582031 404.410156 556.4375 C 385.210938 544.703125 363.871094 540.671875 341.605469 540.832031 C 335.496094 540.832031 329.320312 540.03125 323.273438 540.542969 C 310.570312 541.757812 301.355469 535.84375 292.589844 528.484375 Z M 435.988281 617.046875 C 423.1875 626.226562 410.390625 635.179688 395.484375 640.136719 C 366.6875 649.734375 338.789062 649.15625 314.027344 628.5625 C 307.71875 623.070312 302.144531 616.914062 297.308594 610.089844 C 292.472656 603.265625 288.511719 595.96875 285.425781 588.199219 C 292.238281 589.703125 297.070312 595.777344 304.621094 595.042969 C 304.316406 594.105469 303.820312 593.285156 303.132812 592.578125 C 302.449219 591.871094 301.644531 591.347656 300.71875 591.011719 C 296.460938 588.390625 292.035156 586.097656 287.441406 584.136719 C 286.210938 583.726562 285.050781 583.171875 283.960938 582.464844 C 282.871094 581.761719 281.886719 580.933594 281.007812 579.980469 C 280.128906 579.023438 279.386719 577.976562 278.773438 576.835938 C 278.160156 575.691406 277.699219 574.488281 277.394531 573.230469 C 286.382812 576.238281 293.390625 583.5625 303.40625 584.777344 C 302.960938 583.703125 302.328125 582.757812 301.507812 581.9375 C 300.6875 581.117188 299.742188 580.484375 298.667969 580.042969 C 292.148438 575.578125 285.246094 571.804688 277.96875 568.722656 C 272.019531 566.480469 270.195312 561.714844 267.347656 555.925781 L 296.589844 570.128906 C 298.871094 571.363281 301.292969 572.195312 303.851562 572.621094 C 305.132812 572.78125 306.636719 573.230469 307.308594 571.792969 C 307.980469 570.351562 306.445312 569.679688 305.355469 569.105469 C 296.082031 563.9375 286.570312 559.257812 276.816406 555.0625 C 274.675781 554.238281 272.605469 553.257812 270.609375 552.121094 C 274.738281 551.386719 278.480469 549.625 283.089844 551.546875 C 290.832031 554.746094 298.445312 558.132812 306.09375 561.523438 C 308.972656 563.191406 312.074219 564.023438 315.402344 564.019531 C 307.179688 556.183594 296.972656 553.015625 286.960938 548.476562 C 304.621094 543.101562 317.417969 555.320312 332.328125 559.316406 C 326.667969 554.273438 320.410156 550.136719 313.546875 546.910156 C 318.632812 546.910156 322.28125 546.683594 325.863281 546.910156 C 344.261719 548.25 362.882812 546.910156 380.796875 553.082031 C 388.804688 555.679688 396.175781 559.507812 402.90625 564.5625 C 406.808594 567.761719 410.519531 570.960938 414.648438 573.835938 C 417.882812 576.003906 420.679688 578.632812 423.042969 581.730469 C 425.402344 584.824219 427.203125 588.21875 428.4375 591.910156 C 430.953125 598.675781 433.8125 605.296875 437.011719 611.769531 C 437.175781 611.972656 437.3125 612.191406 437.425781 612.421875 C 437.539062 612.65625 437.628906 612.902344 437.6875 613.152344 C 437.746094 613.40625 437.773438 613.664062 437.777344 613.921875 C 437.777344 614.183594 437.75 614.441406 437.691406 614.695312 C 437.636719 614.949219 437.550781 615.191406 437.4375 615.425781 C 437.328125 615.660156 437.191406 615.878906 437.027344 616.082031 C 436.867188 616.289062 436.683594 616.46875 436.480469 616.632812 C 436.28125 616.796875 436.0625 616.933594 435.828125 617.046875 Z M 437.140625 579.722656 C 435.796875 580.234375 435.570312 578.507812 435.21875 577.484375 C 428.210938 556.984375 420.246094 536.800781 414.390625 515.949219 C 413.953125 514.375 413.753906 512.769531 413.792969 511.136719 C 413.832031 509.5 414.105469 507.90625 414.613281 506.355469 C 416.214844 501.101562 418.414062 496.113281 421.210938 491.386719 C 424.007812 486.660156 427.320312 482.332031 431.15625 478.402344 C 453.902344 454.382812 483.273438 443.21875 514.339844 435.160156 C 516.417969 434.527344 518.5 434.527344 520.578125 435.160156 C 512.101562 438.359375 503.558594 439.796875 495.335938 444.753906 C 496.8125 445.195312 498.320312 445.386719 499.859375 445.328125 C 501.398438 445.265625 502.886719 444.957031 504.324219 444.402344 C 517.476562 440.660156 530.59375 436.792969 543.742188 433.050781 C 546.222656 432.40625 548.742188 431.957031 551.292969 431.707031 C 552.605469 431.515625 554.109375 431.707031 554.492188 433.242188 C 554.875 434.777344 553.050781 434.648438 552.1875 435.128906 C 540 441.523438 527.074219 446.609375 514.53125 452.429688 C 513.347656 452.972656 511.042969 453.199219 511.589844 454.988281 C 512.261719 457.261719 514.339844 455.789062 515.652344 455.40625 C 528.855469 451.589844 541.355469 446.152344 553.148438 439.09375 C 553.660156 438.773438 554.269531 438.519531 554.875 438.199219 C 555.804688 440.757812 554.585938 442.003906 552.667969 443.378906 C 544.675781 449.101562 536.296875 454.175781 527.519531 458.601562 C 526.5625 459.082031 524.929688 459.339844 525.441406 460.714844 C 525.953125 462.089844 527.554688 461.257812 528.640625 460.96875 C 533.355469 459.835938 537.851562 458.125 542.128906 455.839844 C 546.40625 453.554688 550.324219 450.765625 553.882812 447.472656 C 554 447.859375 554.082031 448.25 554.128906 448.648438 C 554.179688 449.050781 554.191406 449.449219 554.167969 449.851562 C 554.144531 450.253906 554.089844 450.648438 553.996094 451.042969 C 553.90625 451.433594 553.78125 451.816406 553.621094 452.183594 C 553.464844 452.554688 553.277344 452.90625 553.054688 453.246094 C 552.835938 453.582031 552.589844 453.898438 552.3125 454.191406 C 552.039062 454.484375 551.738281 454.75 551.417969 454.992188 C 551.097656 455.234375 550.753906 455.445312 550.398438 455.628906 C 541.535156 461.480469 532.480469 467.015625 523.296875 472.355469 C 522.179688 473.027344 520.097656 473.636719 520.800781 475.332031 C 521.507812 477.027344 523.296875 475.332031 524.480469 474.914062 C 534.457031 471.304688 543.554688 466.144531 551.773438 459.433594 C 550.816406 466.199219 549.101562 472.769531 546.628906 479.136719 C 544.152344 485.503906 540.984375 491.507812 537.121094 497.144531 C 536 498.710938 534.878906 500.339844 533.917969 501.910156 C 531.125 506.292969 527.835938 510.265625 524.042969 513.820312 C 520.25 517.378906 516.078125 520.410156 511.523438 522.921875 C 500.167969 529.089844 489.5625 536.347656 479.699219 544.699219 C 469.839844 553.046875 460.929688 562.3125 452.976562 572.496094 C 449.074219 577.707031 442.449219 577.644531 436.980469 579.722656 Z M 611.761719 533.445312 C 608.242188 542.015625 607.984375 551.097656 598.964844 555.832031 C 595.214844 558.03125 591.632812 560.472656 588.214844 563.15625 C 586.773438 564.148438 584.726562 565.363281 585.652344 567.21875 C 586.582031 569.074219 588.851562 567.695312 590.164062 566.929688 C 593.84375 564.980469 597.394531 562.773438 601.265625 560.53125 C 601.300781 561.566406 601.160156 562.574219 600.839844 563.558594 C 600.519531 564.542969 600.046875 565.441406 599.410156 566.257812 C 590.261719 582.921875 581.109375 599.839844 565.464844 611.355469 C 560.035156 615.523438 554.3125 619.238281 548.292969 622.5 C 542.273438 625.761719 536.035156 628.53125 529.578125 630.804688 C 523.121094 633.078125 516.523438 634.828125 509.789062 636.054688 C 503.050781 637.28125 496.261719 637.972656 489.417969 638.125 C 480.554688 638.125 471.722656 637.515625 462.894531 636.875 C 462.242188 636.855469 461.609375 636.742188 460.992188 636.542969 C 460.375 636.339844 459.796875 636.058594 459.257812 635.691406 C 458.71875 635.328125 458.242188 634.894531 457.828125 634.394531 C 457.414062 633.894531 457.074219 633.347656 456.816406 632.75 C 452.902344 624.648438 449.800781 616.246094 447.503906 607.546875 C 447.210938 605.117188 447.335938 602.710938 447.886719 600.328125 C 448.4375 597.941406 449.375 595.722656 450.703125 593.667969 C 454.257812 586.699219 458.390625 580.097656 463.101562 573.855469 C 467.816406 567.613281 473.035156 561.828125 478.761719 556.503906 C 497.957031 538.878906 521.21875 528.996094 544.703125 519.242188 C 557.277344 514.03125 569.175781 506.960938 582.933594 504.882812 L 585.460938 504.625 C 577.878906 509.519531 570.265625 512.335938 563.769531 517.066406 C 564.410156 518.378906 565.785156 517.644531 566.714844 518.089844 C 578.648438 514.542969 589.109375 507.664062 600.53125 502.898438 C 601.550781 502.316406 602.640625 501.949219 603.804688 501.808594 C 604.972656 501.664062 606.121094 501.75 607.25 502.066406 C 595.445312 512.78125 579.351562 517.066406 569.144531 529.636719 C 584.472656 522.402344 598.964844 513.765625 612.625 503.730469 C 614.382812 506.929688 613.265625 508.785156 610.898438 511.183594 C 603.761719 518.347656 594.898438 523.273438 587.09375 529.253906 C 583.535156 531.792969 580.335938 534.722656 577.496094 538.050781 C 576.855469 538.847656 575.640625 539.777344 576.726562 540.925781 C 577.816406 542.078125 578.742188 540.925781 579.640625 540.320312 C 590.390625 531.429688 603.410156 525.703125 613.425781 515.277344 C 613.566406 516.039062 613.652344 516.808594 613.679688 517.585938 C 613.707031 518.359375 613.679688 519.132812 613.597656 519.90625 C 613.515625 520.675781 613.375 521.4375 613.179688 522.1875 C 612.988281 522.9375 612.738281 523.671875 612.4375 524.386719 C 612.136719 525.101562 611.785156 525.792969 611.382812 526.457031 C 610.984375 527.121094 610.535156 527.75 610.042969 528.351562 C 609.546875 528.949219 609.015625 529.507812 608.4375 530.03125 C 607.863281 530.550781 607.253906 531.027344 606.609375 531.460938 C 599.859375 536.707031 592.820312 541.4375 585.972656 546.554688 C 585.015625 547.292969 583.542969 547.613281 583.445312 549.210938 C 588.117188 549.785156 592.339844 547.453125 611.601562 533.445312 Z M 611.761719 533.445312 "/>
<g clip-path="url(#clip1)" clip-rule="nonzero">
<path style=" stroke:none;fill-rule:nonzero;fill:rgb(100%,100%,100%);fill-opacity:1;" d="M 801.582031 402.570312 L 800.554688 377.367188 C 800.078125 371.289062 799.566406 365.246094 798.828125 359.199219 C 795.992188 340.980469 791.660156 323.125 785.839844 305.628906 C 776.242188 274.09375 761.972656 244.414062 748.695312 214.382812 C 735.898438 185.246094 715.773438 160.425781 696.609375 135.222656 C 692.378906 129.59375 687.6875 124.378906 682.53125 119.585938 C 668.480469 106.34375 653.636719 94.058594 638.007812 82.722656 C 622.378906 71.382812 606.089844 61.09375 589.140625 51.84375 C 571.488281 42.21875 552.890625 35.042969 533.34375 30.320312 C 510.757812 25.074219 488.746094 16.984375 465.582031 14.328125 C 445.328125 11.992188 425.046875 9.980469 404.570312 9.46875 C 381.300781 9.117188 358.191406 10.855469 335.238281 14.679688 C 314.539062 17.878906 295.246094 25.96875 275.472656 32.175781 C 242.199219 42.539062 212.636719 60.769531 182.628906 77.589844 C 146.953125 97.707031 118.640625 126.398438 93.269531 158.089844 C 79.832031 174.945312 69.113281 193.59375 58.078125 212.144531 C 43.101562 237.410156 33.601562 264.5625 24.355469 292.101562 C 20.320312 303.710938 17.492188 315.609375 15.875 327.792969 C 14.628906 337.964844 14.691406 348.167969 13.414062 358.304688 C 11.84375 371.671875 8.421875 384.980469 8.644531 398.667969 L 8.644531 426.621094 C 9.515625 437.375 11.042969 448.035156 13.222656 458.601562 C 16.226562 471.140625 15.238281 484.191406 18.019531 496.726562 C 20.960938 510.261719 24.613281 523.605469 28.972656 536.753906 C 33.335938 549.902344 38.386719 562.777344 44.121094 575.386719 C 49.855469 588 56.246094 600.265625 63.289062 612.195312 C 70.332031 624.125 77.992188 635.644531 86.261719 646.757812 C 106.164062 673.65625 129.902344 696.875 155.082031 718.71875 C 170.664062 732.28125 185.988281 746.097656 205.152344 754.667969 C 241.113281 770.660156 277.839844 784.828125 316.488281 793.050781 C 336.871094 797.460938 357.089844 803.15625 378.140625 803.828125 L 410.710938 803.828125 L 412.085938 803.601562 C 416.023438 802.453125 420.183594 804.019531 424.117188 802.738281 C 426.742188 802.578125 429.332031 802.484375 431.921875 802.195312 C 462.453125 798.570312 492.195312 791.597656 521.15625 781.28125 C 547.261719 772.484375 573.046875 763.367188 596.082031 747.890625 C 599.3125 746.039062 602.683594 744.492188 606.195312 743.25 C 621.707031 736.839844 636.339844 728.824219 650.089844 719.199219 C 672.964844 702.132812 693.484375 682.589844 711.644531 660.574219 C 720.1875 650.339844 729.210938 640.234375 735.128906 628.144531 C 752.566406 592.453125 769.875 556.824219 783.121094 519.148438 C 788.371094 504.050781 792.550781 488.664062 795.65625 472.984375 C 798.765625 457.308594 800.769531 441.488281 801.675781 425.53125 C 801.582031 417.953125 801.582031 410.246094 801.582031 402.570312 Z M 669.734375 681.941406 C 653.171875 696.058594 635.433594 708.511719 616.527344 719.296875 C 587.378906 735.261719 557.445312 749.578125 526.722656 762.25 C 509.222656 769.636719 490.472656 773.089844 472.011719 777.183594 C 441.296875 784.03125 410.359375 789.210938 381.214844 787.386719 C 353.699219 788.410156 328.742188 787.613281 304.714844 780.128906 C 285.070312 774.050781 266.613281 764.585938 247.128906 757.738281 C 225.179688 749.730469 204.789062 738.816406 185.957031 724.988281 C 176.070312 718.050781 165.222656 712.515625 156.105469 704.488281 C 153.226562 702.375 150.632812 699.957031 148.332031 697.226562 C 134.765625 678.039062 117.679688 661.824219 101.941406 644.519531 C 88.503906 629.710938 79.542969 612.152344 69.945312 595.074219 C 49.277344 559.0625 40.289062 519.46875 33.183594 479.039062 C 28.402344 453.429688 25.789062 427.597656 25.347656 401.546875 C 25.074219 378.660156 26.757812 355.917969 30.398438 333.320312 C 34.042969 310.722656 39.589844 288.605469 47.039062 266.960938 C 55.003906 243.964844 61.433594 220.425781 74.519531 199.574219 C 82.367188 187.75 91.429688 176.949219 101.714844 167.175781 C 104.308594 164.550781 105.617188 165.863281 107.570312 167.71875 C 130.511719 189.722656 152.96875 212.269531 176.582031 233.476562 C 219.804688 272.429688 261.398438 312.792969 304.429688 351.589844 C 331.75 376.214844 361.058594 398.667969 388.253906 423.421875 C 425.652344 457.484375 464.75 489.53125 502.214844 523.527344 C 551.195312 567.984375 600.46875 612.21875 649.386719 656.578125 C 656.265625 662.972656 662.726562 669.5625 669.703125 675.769531 C 672.867188 678.292969 672.484375 679.605469 669.734375 681.941406 Z M 762.035156 537.472656 C 748.636719 569.164062 732.820312 599.601562 714.589844 628.785156 C 706.453125 642.171875 697.125 654.667969 686.59375 666.269531 C 683.394531 669.660156 681.410156 670.105469 677.796875 666.589844 C 628.460938 618.328125 575.414062 574.191406 525.058594 526.984375 C 493.734375 497.589844 460.078125 470.789062 428.308594 441.941406 C 387.132812 404.550781 343.363281 370.203125 302.285156 332.78125 C 273.808594 306.84375 246.265625 279.882812 217.628906 254.136719 C 201.023438 239.199219 173.894531 214.636719 157.671875 199.285156 C 143.722656 186.109375 129.613281 173.125 115.183594 160.492188 C 111.984375 157.707031 112.210938 156.011719 114.738281 152.972656 C 146.21875 115.136719 185.25 86.898438 228.636719 64.542969 C 255.15625 50.851562 301.003906 35.179688 330.183594 28.945312 C 365.375 21.429688 401.050781 16.152344 437.425781 18.132812 C 453.253906 19.386719 468.609375 22.765625 483.496094 28.273438 C 516.515625 39.46875 549.339844 51.171875 581.335938 65.246094 C 595.089844 71.117188 608.15625 78.253906 620.535156 86.644531 C 632.914062 95.039062 644.375 104.535156 654.921875 115.136719 C 657.644531 117.960938 660.6875 120.390625 664.039062 122.429688 C 682.242188 133.785156 693.953125 150.640625 704.511719 168.773438 C 720.507812 196.214844 736.25 223.847656 750.324219 252.28125 C 766.003906 283.878906 777.839844 316.664062 781.488281 352.132812 C 783.855469 375.289062 785.421875 398.445312 785.519531 420.128906 C 785.792969 430.191406 785.5 440.238281 784.644531 450.269531 C 783.789062 460.300781 782.371094 470.253906 780.398438 480.125 C 778.421875 489.996094 775.898438 499.726562 772.828125 509.316406 C 769.757812 518.902344 766.160156 528.289062 762.035156 537.472656 Z M 762.035156 537.472656 "/>
</g>
</g>
</svg>
