<?xml version="1.0" encoding="UTF-8"?>
<svg xmlns="http://www.w3.org/2000/svg" xmlns:xlink="http://www.w3.org/1999/xlink" width="810pt" height="809.999993pt" viewBox="0 0 810 809.999993" version="1.2">
<defs>
<clipPath id="clip1">
  <path d="M 13.992188 1 L 796.242188 1 L 796.242188 810 L 13.992188 810 Z M 13.992188 1 "/>
</clipPath>
</defs>
<g id="surface1">
<g clip-path="url(#clip1)" clip-rule="nonzero">
<path style=" stroke:none;fill-rule:nonzero;fill:rgb(100%,100%,100%);fill-opacity:1;" d="M 789.632812 2.074219 C 763.5625 7.722656 737.710938 14.425781 711.921875 21.09375 C 629.828125 42.707031 557.492188 81.058594 498.964844 143.921875 C 484.910156 158.988281 469.496094 172.851562 456.339844 188.722656 C 439.351562 209.226562 427.371094 232.539062 416.714844 257.023438 C 411.144531 270.109375 406.703125 283.570312 403.390625 297.402344 C 400.078125 311.234375 397.9375 325.242188 396.976562 339.433594 C 394.351562 372.132812 395.1875 404.953125 394.9375 437.746094 C 394.851562 459.308594 397.109375 480.621094 401.703125 501.691406 C 402.03125 503.257812 402.089844 504.835938 401.882812 506.425781 C 401.675781 508.011719 401.214844 509.523438 400.5 510.953125 C 393.210938 527.164062 385.054688 543.128906 379.25 559.863281 C 361.707031 609.511719 349.074219 660.769531 332.210938 710.664062 C 328.6875 721.070312 326.867188 732.0625 320.6875 743.023438 C 319.050781 737.09375 317.351562 732.433594 316.488281 727.585938 C 311.722656 702.867188 305.332031 678.578125 297.308594 654.714844 C 279.609375 598.707031 259.410156 543.28125 243.074219 486.746094 C 227.628906 433.546875 204.898438 383.554688 181.703125 333.753906 C 163.417969 294.539062 141.304688 257.117188 119.929688 219.507812 C 89.476562 166.214844 57.726562 114.0625 15.597656 68.984375 C 14.332031 68.675781 13.714844 68.984375 14.113281 70.433594 C 21.464844 82.785156 28.414062 95.136719 36.257812 107.179688 C 69.585938 158.1875 101.863281 209.90625 131.359375 263.167969 C 149.273438 295.496094 164.808594 329.183594 180.15625 362.839844 C 192.171875 389.207031 204.402344 415.515625 212.371094 443.582031 C 226.117188 492.089844 242.238281 539.886719 257.589844 587.898438 C 271.332031 630.816406 282.082031 674.507812 294.1875 717.796875 C 302.003906 745.585938 305.988281 774.609375 313.554688 802.617188 C 314.265625 805.332031 313.925781 810.058594 318.3125 808.792969 C 322.695312 807.523438 329.984375 809.964844 331.191406 802.058594 C 333.011719 790.078125 334.835938 778.070312 336.5625 766.058594 C 346.789062 695.90625 368.191406 628.933594 394.105469 563.257812 C 394.460938 561.890625 395.082031 560.65625 395.964844 559.554688 C 396.84375 558.453125 397.914062 557.578125 399.171875 556.929688 C 420.789062 547.078125 440.28125 533.617188 460.941406 522.410156 C 471.796875 516.308594 481.652344 508.875 490.5 500.117188 C 511.132812 480.539062 532.195312 461.367188 552.117188 441.078125 C 575.683594 417.121094 597.953125 391.675781 615.773438 363.148438 C 634.953125 332.269531 649.378906 299.171875 662.566406 265.421875 C 680.757812 218.796875 699.042969 172.234375 717.019531 125.519531 C 727.519531 98.316406 744.167969 74.695312 759.609375 50.367188 C 770.140625 33.785156 778.386719 15.472656 795.097656 3.554688 C 795.5 3.246094 795.5625 2.445312 796.085938 1.117188 C 793.707031 1.457031 791.640625 1.640625 789.632812 2.074219 Z M 503.257812 151.546875 C 525.382812 128.402344 549.679688 107.820312 576.148438 89.792969 C 577 89.578125 577.863281 89.445312 578.742188 89.394531 C 572.5625 118.511719 576.546875 147.597656 572.226562 176.15625 C 571.824219 178.953125 570.796875 181.496094 569.136719 183.785156 C 549.863281 211.757812 528.644531 238.558594 515.488281 270.238281 C 515.488281 270.546875 514.777344 270.671875 514.652344 270.734375 C 503.503906 233.527344 502.296875 195.117188 501.25 156.644531 C 501.214844 155.691406 501.371094 154.773438 501.722656 153.886719 C 502.070312 153 502.582031 152.222656 503.257812 151.546875 Z M 425.855469 257.332031 C 433.609375 239.828125 442.996094 223.246094 454.007812 207.585938 C 465.019531 191.925781 477.453125 177.488281 491.304688 164.269531 C 491.972656 163.792969 492.683594 163.394531 493.433594 163.066406 C 493.195312 180.984375 494.179688 198.839844 496.386719 216.625 C 498.59375 234.410156 502.007812 251.964844 506.621094 269.28125 C 507.261719 271.335938 507.675781 273.433594 507.859375 275.578125 C 508.039062 277.722656 507.992188 279.859375 507.707031 281.992188 C 507.425781 284.125 506.917969 286.203125 506.179688 288.226562 C 505.445312 290.246094 504.503906 292.167969 503.347656 293.984375 C 488.554688 318.929688 476.199219 345.238281 463.042969 371.175781 C 461.898438 373.492188 460.601562 375.714844 458.75 379.078125 C 457.019531 373.519531 455.816406 368.890625 454.179688 364.414062 C 443.925781 336.625 434.132812 308.527344 424.589844 280.398438 C 423.921875 278.53125 423.445312 276.613281 423.160156 274.652344 C 422.875 272.6875 422.789062 270.71875 422.894531 268.738281 C 423.003906 266.757812 423.308594 264.804688 423.804688 262.886719 C 424.304688 260.96875 424.988281 259.117188 425.855469 257.332031 Z M 416.589844 283.671875 C 418.78125 289.84375 420.789062 295.339844 422.765625 300.835938 C 430.644531 324.273438 439.601562 347.335938 448.589844 370.371094 C 449.753906 372.96875 450.605469 375.660156 451.144531 378.453125 C 451.683594 381.246094 451.898438 384.066406 451.78125 386.910156 C 451.667969 389.75 451.226562 392.542969 450.464844 395.28125 C 449.699219 398.023438 448.632812 400.640625 447.261719 403.132812 C 433.269531 430.304688 422.890625 459.171875 412.050781 487.734375 L 409.578125 494.09375 C 399.324219 464.207031 404.175781 318.777344 416.527344 283.609375 Z M 570.15625 404.460938 C 547.238281 433.421875 517.496094 455.53125 492.351562 482.207031 C 467.210938 508.886719 433.671875 522.347656 402.351562 542.757812 C 409.300781 524.230469 415.695312 507.15625 422.027344 490.265625 C 431.816406 464.050781 442.597656 438.238281 453.5625 412.519531 C 453.992188 411.359375 454.554688 410.269531 455.25 409.246094 C 455.941406 408.222656 456.746094 407.296875 457.664062 406.464844 C 458.578125 405.636719 459.582031 404.925781 460.667969 404.335938 C 461.753906 403.746094 462.898438 403.292969 464.09375 402.976562 C 484.105469 396.800781 504.707031 396.214844 525.371094 396.800781 C 541.402344 397.203125 557.429688 398.285156 573.800781 399.085938 C 573.613281 401.371094 571.453125 402.699219 570.09375 404.398438 Z M 641.191406 289.566406 C 628.621094 316.707031 616.238281 343.972656 599.21875 368.734375 C 583.589844 391.492188 581.707031 391.894531 554.15625 390.347656 C 527.347656 388.898438 500.351562 386.707031 473.851562 393.4375 C 469.898438 394.457031 466.039062 395.753906 460.820312 397.296875 C 466.71875 385.71875 471.96875 375.003906 477.558594 364.535156 C 489.511719 342.152344 499.394531 318.746094 512.242188 296.855469 C 512.675781 295.925781 513.210938 295.058594 513.847656 294.253906 C 514.484375 293.449219 515.203125 292.730469 516.007812 292.09375 C 516.8125 291.460938 517.679688 290.925781 518.609375 290.492188 C 519.539062 290.0625 520.503906 289.742188 521.511719 289.535156 C 547.300781 284.8125 573.027344 279.441406 599.40625 278.699219 C 608.300781 278.421875 617.132812 277.402344 626.027344 277.03125 C 632.667969 276.753906 639.339844 277.03125 646.597656 277.03125 C 644.558594 281.261719 642.890625 285.429688 640.976562 289.503906 Z M 683.382812 188.722656 C 672.296875 213.210938 661.761719 237.878906 652.496094 263.074219 C 652.417969 263.488281 652.304688 263.886719 652.148438 264.277344 C 651.996094 264.667969 651.808594 265.039062 651.582031 265.394531 C 651.359375 265.75 651.105469 266.082031 650.820312 266.386719 C 650.535156 266.695312 650.222656 266.972656 649.882812 267.21875 C 649.546875 267.46875 649.1875 267.683594 648.808594 267.863281 C 648.429688 268.046875 648.039062 268.191406 647.632812 268.296875 C 647.230469 268.40625 646.816406 268.476562 646.398438 268.503906 C 645.980469 268.535156 645.5625 268.527344 645.148438 268.480469 C 603.53125 268.203125 562.503906 272.976562 522.066406 282.804688 C 521.308594 282.820312 520.554688 282.757812 519.8125 282.621094 C 523.609375 274.40625 526.945312 266.347656 530.960938 258.628906 C 543.316406 235.253906 559.714844 214.816406 575.871094 194.128906 C 580.164062 188.601562 587.390625 188.199219 593.722656 187.675781 C 618.429688 185.730469 642.921875 182.980469 667.476562 180.171875 C 674.117188 179.429688 680.757812 178.535156 688.171875 177.609375 C 686.164062 181.652344 684.773438 185.203125 683.199219 188.664062 Z M 731.90625 77.105469 C 723.515625 89.90625 716.210938 103.300781 709.992188 117.285156 C 703.773438 131.273438 698.722656 145.667969 694.84375 160.472656 C 693.113281 166.648438 689.714844 168.902344 683.414062 169.519531 C 655.371094 172.203125 627.355469 175.355469 599.3125 178.441406 C 595.050781 178.90625 590.847656 179.984375 584.609375 181.191406 C 611.417969 150.035156 637.703125 120.886719 668.835938 96.277344 C 664.109375 94.859375 662.90625 95.230469 656.480469 99.179688 C 644.859375 106.636719 633.902344 114.964844 623.613281 124.175781 C 613.324219 133.382812 603.832031 143.351562 595.140625 154.082031 C 590.757812 159.296875 586.03125 164.269531 580.65625 170.230469 C 581.644531 150.25 582.480469 131.726562 583.5 113.199219 C 583.960938 105.171875 585.011719 97.207031 585.226562 89.207031 C 585.238281 88.304688 585.375 87.417969 585.636719 86.550781 C 585.902344 85.6875 586.28125 84.875 586.777344 84.117188 C 587.273438 83.359375 587.863281 82.6875 588.550781 82.097656 C 589.238281 81.507812 589.992188 81.027344 590.816406 80.65625 C 607.566406 70.660156 624.886719 61.765625 642.769531 53.972656 C 660.652344 46.179688 678.957031 39.554688 697.683594 34.09375 C 721.992188 26.746094 746.515625 20.199219 770.945312 13.3125 C 771.886719 13.160156 772.832031 13.089844 773.785156 13.097656 C 758.066406 33.660156 745.988281 55.984375 731.71875 77.042969 Z M 731.90625 77.105469 "/>
</g>
</g>
</svg>
